<?xml version="1.0" encoding="UTF-8"?>
<svg id="Lager_1" data-name="Lager 1" xmlns="http://www.w3.org/2000/svg" viewBox="0 0 500 316.64">
  <defs>
    <style>
      .cls-1 {
        fill: #4f5650;
      }

      .cls-2 {
        fill: #fff;
      }

      .cls-3 {
        fill: #a98a57;
      }

      .cls-4 {
        fill: #282923;
      }

      .cls-5 {
        fill: #d0ae78;
      }

      .cls-6 {
        fill: #383832;
      }
    </style>
  </defs>
  <path class="cls-5" d="M7.94,178.22c1.56-7.91,12.9-28.48,17.16-36.76,9.17-17.81,19.54-37.58,29.61-54.79,12.15-20.77,36.94-38.69,56.46-52.73,7.3-5.25,18.27-14.09,26.72-16.16,24.16-5.9,57.64-6.25,82.76-7,65.56-1.95,131.38,1.01,196.89,4.02,7.97.37,18.57-.41,26.2.59,1.25.16.88,1.26,1.42,1.39,2.12.49,4.86-.99,7.28-.73,1.27.14.64,1.28,1.93,1.46,4.86.65,6.52-1.9,11.71,1.01,3.55,1.99,2.7,2.82,3.86,5.49.36.82,1.35.78,1.44.95.12.24-.4,2.74.06,4.22.35,1.14,1.22,1.02,1.5,1.92,1.06,3.4,1.87,7.72,2.53,10.31,2.55,10.03,4.76,20.15,6.75,30.3-.88.06-1.8-.09-2.68,0-.54.05-1.86-.12-2.01,0l-1.34.67c-.44-.03-.9.02-1.34,0-.89-.03-1.79,0-2.68,0-2.93-.01-5.75.58-8.04.67-5.31.2-11.32.67-16.41.67h-19.43c-1.16,0-4.3,1.12-6.03,1.2-2.74.12-6.77-1.65-9.71.14-1.34-.01-2.68.02-4.02,0-3.52-.06-6.57.63-9.69.7-6.34.13-12.94-.66-19.12.64-5.6-.57-11.22.5-16.75.67-47.27,1.42-94.51,4.38-141.65,6.73-9.89.49-19.95-.17-29.84.64-.44,5.22,2.55,4.21,6.7,4.02-4.64,11.79-8.57,24.14-12.25,36.32-2.61,8.61-9.85,29.43-10.44,37.12-.78,10.01,1.45,25.01,1.92,35.43.09,2.1,0,4.23-.03,6.32l-17.08,2.08c-.71.21-2.31-.5-2.31-1.04v-10.72c0-.47-1.12-.9-1.68-1-4.09-.75-10.87.27-15.43.03-42.79-2.26-86.81-10.62-129.31-16.12-2.29-.84-1.88,1.38-3.63,1.35ZM207.56,15.45c-3.3-.52-5.87,2.14-8.35,4.03-12.81,9.78-26.89,21.89-39.22,32.46-3.01,2.58-6.15,5.32-8.7,8.38,3.69.67,5.06-.66,7.68-2.69,14.85-11.53,29.98-25.56,44.57-37.82,1.29-1.08,3.73-2.69,4.01-4.36ZM231.67,15.45c-2.42-.07-4.51,1.29-6.34,2.69-13.36,10.24-25.05,22.99-38.54,33.13l-11.38,11.06c2.41.26,3.75.01,5.69-1.34,8.83-6.12,19.37-17.7,27.79-25.13,6.98-6.16,14.47-11.87,21.38-18.14.74-.68,1.68-.99,1.4-2.28ZM184.79,16.12c-2.89-.52-4.47.97-6.64,2.4-15.04,9.91-34.62,27.08-48.6,39.15-1.09.94-3.2,1.84-3.04,3.32l3.38-.3,54.89-44.58ZM162.68,18.13l-4.63,1.06c-9.4,7.67-19.55,14.38-29.18,21.73-6.97,5.32-15.15,13.56-22.55,17.68-1.89,1.05-2.52-.59-1.24,3.07l57.6-43.54ZM143.25,20.14c-1.38-1.2-12.13,8.04-13.85,9.25-13.59,9.54-29.47,19.64-41.83,30.53-.64.56-1.7,0-1.25,1.74,1.11.94,9.78-5.31,11.33-6.42,14.98-10.73,29.5-22.4,44.34-33.39.35-.26,2.44-.71,1.26-1.72ZM84.97,79.75c-5.57.31-15.9.73-20.92,2.19-1.39.41-2.83,1.14-3.86,2.17-2.8,2.78-8.5,14.44-10.83,18.64-6.92,12.5-17.27,29.69-22.57,42.41-1.17,2.81-4.52,10.04.26,10.94,15.43.4,30.8,1.98,46.15,3.42,17.14,1.6,34.68,3.58,51.97,5.31,8.04.8,20.17,3.2,27.83,2.72,3.7-.23,5.1-1.93,7.68-4.06.38-.31,1.27-.07,2.32-1.35,1.34-1.63,3.69-7.67,4.7-10.04,8.49-19.74,14.69-41.32,22.33-61.47.09-5.51-4.69-6.5-9.12-7.33-26.69-4.97-67.9-5.01-95.26-3.55l-.33-.66-.33.66Z"/>
  <path class="cls-5" d="M492.93,133.34c2.95,20.8.65,41.95-.67,62.97-.63-1.25-.93-1.31-2.29-1.39-4.62-.28-24.98,4.45-30.25,6.04-1,.3-2.34.12-2.31,1.71-.05,2.56,32.24-6.88,34.84-5.69-.3,4.18.43,11.18-2.65,14.44-3.88,4.11-21.02,10.53-26.95,12.42-.51.16-.95,1.25-1.21,1.28-.2.02-3.87-.53-4.02-.67-.33-.31-.44-7.21-.77-8.95-5.56-29.14-29.89-28.06-41.56-4.23-2.62,5.35-5.43,20.97-7.91,23.58-1.54,1.62-9.99,3.65-12.74,4.34-32.54,8.1-70.8,15.32-103.99,20.95-1.16.2-2.37,1.05-3.19,1.16-.55.07-3.82-.79-5.31-.05-1.24-4.81-1.35-9.86-2.37-14.71-5.78-27.4-30.75-32.11-48.3-11.39-1.1,1.3-2.91,4.42-3.64,6.06-1.71,1.51-5.22,9.75-6.06,12.36-1.77,5.47-2.86,16.22-8.01,19.79-2.52,1.75-9.58,2.66-12.73,2.68-.03.44.03.89,0,1.34-5.27-.82-10.81,1.76-15.91,2.51-7.89,1.16-15.3,1.61-23.29,1.52-1.13-.01-2.98.43-3.67-.68,1.53-.18,11.16-2.75,11.88-3.52,1.21-1.29.97-6.91.88-8.9-.58-12.25-2.92-8.42-12.76-7.67l-1.34-7.37c6.81,1.73,13.58-.21,20.38-.71,1.42,6.13,2.64,12.56,1.72,18.79,7.5-.68,14.97-1.74,22.45-2.67,4.5-.56,7.7.39,11.95-2.79,2.86-2.14,1.92-6.67,2.75-9.98,5.82-22.98,19.45-39.84,44.33-42.09l19.72-2.38c2.02-1.37-1.24-19.17,2.39-20.39l210.94-30.22c1.44-1.75-1.95-1.77-3.18-1.85l-208.18,29.97c-.02-11.01.6-22.05-2.01-32.82l213.02-22.78ZM381.84,192.4c-.75,1.13-1.22,9.64-.17,11,1.19,1.54,7.03.09,8.12-.71.97-.72,1-9.29.33-10.4-1.19-1.99-7.75-.67-8.28.12ZM408.53,211.05l-127.94,22.43c.9,1.44,1.55.77,2.66.72,3.15-.15,6.48-.71,9.62-1.15,33.38-4.66,69.22-11.15,102.39-17.52,4.42-.85,8.78-2.13,13.28-2.47v-2Z"/>
  <path class="cls-5" d="M478.19,75.06c1.3-.14,2.7.1,4.02,0,3.55,18.48,7.16,36.95,10.05,55.6l-212.35,22.77-6.7-68.33c34.5-1.5,69.24-3.74,103.83-5.36,1.11-.05,2.24.05,3.35,0,31.06-1.46,63.6-1.46,94.45-4.02,1.23-.1,2.3-.56,3.35-.67ZM329.57,87.22c-.93,7.08.78,14.04,1.24,21.01.53,8.06.52,16.33,1.41,24.04.47,4.11-.31,9.9,4.92,9.82,8.58-.13,20.1-1.68,28.84-2.72,5.18-.61,12.42-1.1,17.26-2.16,2.36-.52,4.11-1.57,4.42-4.16-1.15-9.36-2.29-18.79-3.25-28.17-.58-5.66-.35-12.62-1.36-18.07-.44-2.36-2.25-2.86-4.29-3.07-5.71-.57-15.44,1.04-21.49,1.37-3.52.19-26.94.89-27.7,2.11Z"/>
  <path class="cls-3" d="M273.21,85.11l6.7,68.33,212.35-22.77c.11.73.52,1.61.67,2.68l-213.02,22.78c2.61,10.77,1.99,21.81,2.01,32.82l208.18-29.97c1.22.08,4.62.09,3.18,1.85l-210.94,30.22c-3.63,1.22-.37,19.02-2.39,20.39l-19.72,2.38c-24.88,2.25-38.51,19.11-44.33,42.09-.84,3.3.11,7.84-2.75,9.98-4.25,3.18-7.44,2.22-11.95,2.79-7.47.94-14.95,2-22.45,2.67.92-6.24-.3-12.66-1.72-18.79-6.8.5-13.57,2.44-20.38.71l1.34,7.37c-8.08.61-14.96.71-23.03-.17l-1.08-1.17,3.36-.34c-2.22-1.25-2.22-5.81-3.35-8.37,9.97.46,19.82,1.83,29.83,1.36,2.87-.13,7.19-.41,9.96-.76.87-.11,3.01-.6,3.44-1.25l.31-44.23c-8.26,1.07-18.11,2.72-26.45,2-19.96-1.74-40.39-4.52-60.3-6.69-10.37-1.13-20.76-2.81-31.15-3.35l5.35-2c-4.14.5-8.37-.45-12.32-.61-2.5-.11-5.5.82-8.65-.08-.3-.09-3.32-1.97-3.58-2.02-1.25-.26-5.21.96-7.89.64-.6-.07-4.28-1.1-4.41-1.29-.1-.14.95-1.77.67-2-4.56.16-9.18-.24-13.74,0-1.68.08-2.07-.5-1,1.34-1.48-.04-1.9,0-2.68,1.34-3.65.76-1.79-3.46-3.35-5.36-.04-2.14-.17-4.61,0-6.7l.67-1-.67-.34c.04-.44-.08-.95,0-1.34,1.75.03,1.34-2.19,3.63-1.35,42.51,5.5,86.52,13.86,129.31,16.12,4.56.24,11.35-.78,15.43-.03.56.1,1.68.53,1.68,1v10.72c0,.54,1.61,1.25,2.31,1.04l17.08-2.08c.03-2.09.13-4.22.03-6.32-.47-10.42-2.7-25.42-1.92-35.43.6-7.69,7.84-28.5,10.44-37.12,3.68-12.18,7.61-24.53,12.25-36.32.22-.01.45.01.67,0,.28,3.44-.79,6.77-1.68,10.05-3.56,13.13-8.71,26.52-12.57,39.68-.95,3.22-7.5,24.99-6.52,25.97,16.24-1.03,32.4-3.63,48.57-5.35,8.23-.87,16.52-1.78,24.78-2.68,3.4-.37,25.67-1.64,26.38-2.76l-6.62-68.25c.67-.03,1.34.03,2.01,0ZM262.49,164.16c-.04-1.05-2.02-2.96.38-4.64s12.3-1.14,15.7-2.06c.53-1.99-1.66-1.42-3.04-1.36-8.77.37-20.31,2.39-29.45,3.38l-68,7.36,2.01,36.18,99.15-14.41v-17.08c-4.05.58-11.84,2.51-15.63,1.23-2.86-.96-1.14-4.29-1.11-5.25,4.21-.52,10.46.03,14.4-.67,2.38-.42,2.38-2.92,0-3.34-4.48-.8-9.76,1.38-14.4.67ZM278.57,209.04v-16.41l-98.04,13c-1.86,1.32-1.02,19.64-1.07,23.2-.02,1.42-.67,2.74-.69,4-.07,5.53.12,10.92.66,16.41,1.3,1.35,32.45-5.74,37.05-5.5,1.69-.51,4.88-8.36,6.22-10.53,12.97-21.06,33.29-21.94,55.88-24.17ZM216.27,246.56l-36.81,5.38,1.31,17.39,28.75-4.41c4.76-2.51,5.34-13.67,6.75-18.36Z"/>
  <path class="cls-4" d="M11.96,222.44c.87-.02,3.63-.2,3.95.07.26.22,1.04,5.42,1.4,6.63.21.69.39.84.67,1.34v.67c1.13,3.32-.75,6.07,2.81,7.57,5.76,2.43,19.82,4.73,26.65,6.17,23.72,5.02,47.83,8.74,71.66,13.02.59-3.09.88-6.24,1.37-9.35.33-2.11.18-6.76,1.63-8.08,2.68-2.45,9.53-1.18,9.6,3.21l2.17,15.59,1.08,1.17c8.07.89,14.96.78,23.03.17,9.84-.75,12.18-4.58,12.76,7.67.09,1.99.33,7.61-.88,8.9-.72.77-10.35,3.34-11.88,3.52-2.26.27-5-.09-7.37,0-2.66.11-5.37-.05-8.04,0-1.33.03-2.7-.1-4.02,0l-1.34-.67c-.31-.22-6.94-.85-7.57-.69s-.89,1.68-1.82,2.34c-13.67,9.74-41.33,4.66-49.41-11.02-13.47-3.43-27.16-6.01-40.63-9.44-7.74-1.97-22.76-5.02-29.35-8.17-1.55-.74-3.71-2.1-4.24-3.8-.28-.91-.39-6.51-.24-7.63.47-3.68,1.45-8.04,2.04-12.09.83-5.62.25-7,5.95-7.12Z"/>
  <path class="cls-5" d="M7.94,187.6c1.56,1.9-.3,6.12,3.35,5.36l1.64,18.13c.96,2.72,2.01,5.64,5.08,6.29,28.01,5.26,55.89,11.06,84.15,15.01,11.96,1.68,24.81,3.48,36.76,4.77,1.82.2,7.35.91,8.67.68,3.19-.57,2.48-4.53,2.37-7.03-.2-4.55-.54-12.35-1.49-16.59-1.74-7.77-6.3-5.15-12.16-5.92-30.62-4.04-61.58-6.67-92.18-11.32.35-1.76-.73-1.82-2.01-.67-8.72-.44-19.74-4.46-28.13-4.69-1.08-1.84-.68-1.26,1-1.34,4.56-.23,9.18.16,13.74,0,.27.23-.78,1.86-.67,2,.14.19,3.81,1.22,4.41,1.29,2.68.31,6.64-.91,7.89-.64.26.05,3.28,1.93,3.58,2.02,3.15.91,6.15-.02,8.65.08,3.94.17,8.18,1.11,12.32.61l-5.35,2c10.39.54,20.78,2.22,31.15,3.35,19.9,2.17,40.34,4.95,60.3,6.69,8.33.73,18.19-.93,26.45-2l-.31,44.23c-.43.65-2.57,1.14-3.44,1.25-2.77.35-7.09.63-9.96.76-10.02.46-19.87-.91-29.83-1.36,1.14,2.56,1.13,7.12,3.35,8.37l-3.36.34-2.17-15.59c-.07-4.39-6.92-5.66-9.6-3.21-1.45,1.32-1.3,5.97-1.63,8.08-14.38-.41-29.06-5.49-43.21-6.69-1.27-.11-3.47-.46-4.35.66-1-.27-2.76-.42-4.02-.67l-2.23-2.13c-16.69-2.02-32.96-6.79-49.35-10.6-.37-1.21-1.14-6.42-1.4-6.63-.32-.27-3.09-.09-3.95-.07l-4.66-32.63c-.52-.84.65-2.08.64-2.2ZM72.15,230.57c-.45-.76-15.31-2.99-17.31-3.17-2.94-.27-4.21,1.21-.81,2.19,5.66,1.63,12.15,1.99,17.87,3.58.57.03.51-2.14.25-2.59ZM97.03,236.5c.25-1.59-1.35-2.17-2.51-2.51-5.52-1.59-13.14-1.43-18.92-2.85-.06.88.35,2.29,1.18,2.66,1.25.57,13.06,2.37,15.31,2.61,1.65.18,3.3.08,4.94.08ZM73.58,239.18c.09-1.23.24-2.04-1.14-2.53-2.01-.72-18.26-3.49-18.95-2.82-.36.35-.01,1.8.68,2.33,1,.75,18.69,3.71,19.41,3.03ZM98.37,243.2c.19-1.28-.78-2.08-1.85-2.5-1.51-.6-18.82-3.48-19.58-2.85-.26,1.37.62,1.6,1.62,2.05,1.94.88,19.03,3.94,19.81,3.3Z"/>
  <path class="cls-6" d="M227.66,241.19c1.23-1.08.98-1.14,1.58-1.73,3.34-3.33,10.15-6.75,14.81-7,21.85-1.18,34.08,21.75,31.79,41.17-.32,2.73-2.42,6.96-2.61,9.51-.21,2.8,1.93,2.78-1.35,4.94,1.05.54,4.48-.79,5.14-1.52.57-.63.41-1.86,1.5-2.89,1.49-1.41,5.18-2.27,6.77-4.13,3.59-4.19,1.32-7.73,1.29-11.94,0-.94.7-1.51.7-1.62,2.02-.37,1.3,1.02,1.34,2.31.13,3.56,1.71,23.26-.1,24.39-5.71.8-11.12-2.08-16.85-1.8-4.84,6.26-8.55,12.07-16.1,15.41-9.98,4.42-31.77,3.64-40.74-3.05-.94-.7-1.88-.96-1.92-2.43.62.02,2.37-.97,2.67-.67.89.89-.41,3.94,5.37,2.69l-.67,2c4.52.46,8.74,2.6,13.39,2.01,1.38-1.04-4.69-3.75-5.02-4.02-4.32-3.44-9.94-12.09-11.39-17.42-.81-2.99-.59-7.92-1.45-9.92-.65-1.5-2.7.03-2.23-2.14,5.15-3.57,6.24-14.32,8.01-19.79.84-2.62,4.35-10.86,6.06-12.36ZM246.86,248.15c-19.18.33-24.51,33.7-7.97,42.43,3.68,1.94,3.57.77,6.55.83,4.36.08,5.1,1.07,9.35-1.99,14.86-10.69,11.12-41.6-7.92-41.27ZM222.3,267.99c-.55-.53-4.93,2.47-4.01,3.34.95.31,4.89-2.51,4.01-3.34ZM280.58,286.75c-.73-.73-2.06.6-1.33,1.33s2.06-.6,1.33-1.33ZM287.27,288.09c-1.17-1.17-3.42,1.07-.99,2,1.42.54,1.19-1.8.99-2Z"/>
  <path class="cls-6" d="M444.7,257.94c-.08.08-.79-.16-1.15.17-3.15,2.89-2.45,4.97-8.89,3.86-1.1,2.01,3.54.85,2,2.67-.59.69-7.02,1.46-8.4,1.39-13.86-.73-18.92-21.27-17.77-32.58.48-4.76,4.72-6.98,4.76-7.44.06-.77-.61-1.66-.5-2.49.09-.76.92-1.48.96-2.17.14-2.22-1.28-5,.2-7.62,5.61,1.34,2.31.28,2.79-2.19.47-2.39,6.8-8.34,9.21-8.92,15.34-3.66,22.61,12.33,24.07,24.92.73,6.27-.5,18.1-2.59,23.02-1.46,3.44-2.12,4.72-4.69,7.37ZM430.44,215.88c-13.83,3.12-12.92,38.42,1.17,38.08,5.18-.12,9.91-7.24,11.01-11.83,1.38-5.76,1.37-16.76-2.24-21.72-2.08-2.85-6.34-5.33-9.93-4.52Z"/>
  <path class="cls-4" d="M394.46,239.18c2.76-.69,11.2-2.71,12.74-4.34,2.47-2.61,5.29-18.23,7.91-23.58,11.67-23.83,36-24.9,41.56,4.23.33,1.74.44,8.64.77,8.95.15.14,3.81.69,4.02.67l.67,25.46h-12.73c2.09-4.93,3.31-16.75,2.59-23.02-1.46-12.59-8.73-28.58-24.07-24.92-2.41.58-8.74,6.53-9.21,8.92-.48,2.47,2.82,3.53-2.79,2.19-1.49,2.62-.06,5.4-.2,7.62-.04.7-.87,1.41-.96,2.17-.1.83.56,1.72.5,2.49-.03.45-4.28,2.68-4.76,7.44-1.14,11.31,3.92,31.85,17.77,32.58,1.38.07,7.81-.7,8.4-1.39,1.54-1.81-3.1-.66-2-2.67,6.44,1.12,5.74-.97,8.89-3.86.36-.33,1.08-.09,1.15-.17-4.57,10.83-19.69,10.28-29.64,8.54-14.03-2.46-20.29-13.74-20.6-27.29Z"/>
  <path class="cls-4" d="M227.66,241.19c.74-1.64,2.54-4.75,3.64-6.06,17.55-20.71,42.52-16.01,48.3,11.39,1.02,4.85,1.13,9.9,2.37,14.71,1.48-.74,4.76.12,5.31.05-.06,1.56.09,3.14,0,4.69,0,.11-.71.68-.7,1.62.03,4.22,2.3,7.75-1.29,11.94-1.59,1.86-5.28,2.72-6.77,4.13-1.09,1.03-.94,2.26-1.5,2.89-.66.73-4.09,2.06-5.14,1.52,3.28-2.16,1.14-2.14,1.35-4.94.19-2.55,2.29-6.78,2.61-9.51,2.29-19.42-9.95-42.35-31.79-41.17-4.65.25-11.47,3.67-14.81,7-.6.6-.35.65-1.58,1.73Z"/>
  <path class="cls-4" d="M213.59,273.35c-.46,2.17,1.59.64,2.23,2.14.86,2,.64,6.93,1.45,9.92,1.45,5.33,7.07,13.98,11.39,17.42.33.26,6.4,2.97,5.02,4.02-4.65.59-8.87-1.56-13.39-2.01l.67-2c-5.77,1.25-4.48-1.8-5.37-2.69-.3-.3-2.06.69-2.67.67-1.51-.05-3.98-2.79-5.03-4.01-4.12-4.76-7.38-13.15-7.03-19.44.02-.44-.04-.9,0-1.34,3.15-.02,10.21-.93,12.73-2.68Z"/>
  <path class="cls-3" d="M492.26,196.98c-2.6-1.19-34.89,8.25-34.84,5.69-.03-1.59,1.31-1.41,2.31-1.71,5.27-1.59,25.62-6.31,30.25-6.04,1.35.08,1.66.14,2.29,1.39-.01.22.02.45,0,.67Z"/>
  <path class="cls-3" d="M150.62,280.72c-.06.37.11,1.26,0,1.34-.3.23-6.94.17-7.62.01-.78-.18-.36-.73-.42-1.35,2.67-.05,5.37.11,8.04,0Z"/>
  <path class="cls-4" d="M482.21,71.71c.19.99-.19,2.36,0,3.35-1.32.1-2.72-.14-4.02,0,1.56-.69,1.53-1.77,1.34-3.35.88-.09,1.8.06,2.68,0Z"/>
  <path class="cls-5" d="M7.94,180.9c0-.12-.08-.5,0-1.34l.67.34-.67,1Z"/>
  <path class="cls-3" d="M138.56,280.72c-.07,0-.63.93-1.33.67-.07-.38.1-1.26,0-1.34l1.34.67Z"/>
  <path class="cls-6" d="M160.67,163.49c-4.52,2.75-8.55,2.91-13.73,2.67-5.68-.26-12.4-1.33-18.18-1.93-1.1-.11-2.91-.55-3.6.6-17.29-1.72-34.82-3.7-51.97-5.31-15.36-1.44-30.72-3.02-46.15-3.42-4.78-.9-1.43-8.13-.26-10.94,5.3-12.72,15.65-29.92,22.57-42.41,2.33-4.2,8.03-15.87,10.83-18.64,1.04-1.03,2.47-1.76,3.86-2.17,5.02-1.46,15.36-1.88,20.92-2.19.22-.01.45.01.67,0,27.36-1.46,68.57-1.42,95.26,3.55,4.43.82,9.21,1.81,9.12,7.33-7.64,20.14-13.84,41.72-22.33,61.47-1.02,2.37-3.36,8.41-4.7,10.04-1.05,1.28-1.94,1.04-2.32,1.35ZM62.71,86.92c-.45.47-1.75.25-2.56,1.15-3.37,3.7-6.86,13.22-9.46,18.02-6.39,11.81-16.54,27.62-21.22,39.74-2.04,5.3-3,6.9,3.6,7.6,27.41,2.9,54.91,4.19,82.37,6.72,8.05.74,16.62,2.91,24.77,3.37,3.12.17,14.32.51,16.64-.17,1.32-.39,4.05-3.95,4.78-5.26,6.67-11.96,12.4-32.39,17.32-45.65,1.9-5.13,9.15-19.13,6.84-23.98-1.42-2.99-9.26-2.34-11.99-2.74-27.06-4-55.08-4.5-82.44-3.25-7.74.35-17.83.14-25.33,1.47-3.5.62-2.64,2.28-3.33,2.99Z"/>
  <path class="cls-4" d="M362.97,77.07c.37,2.02-1.02,1.3-2.31,1.34-2.02.06-4.04-.09-6.05,0l-7.04,1.33c4.1.51,8.46-.43,12.39-.53,5.02-.12,10.05-.02,15.21-.34,1.14-.07,2.14-1.45,1.87.87-34.59,1.62-69.33,3.86-103.83,5.36-.67.03-1.34-.03-2.01,0-24.06,1.04-48.29,2.17-72.35,3.35-.22.01-.45-.01-.67,0-4.15.19-7.14,1.2-6.7-4.02,9.89-.81,19.95-.15,29.84-.64,47.14-2.35,94.38-5.3,141.65-6.73Z"/>
  <path class="cls-4" d="M474.84,72.38v3.35c-30.85,2.56-63.39,2.56-94.45,4.02l3.35-2.68c-1.49.67-3.25-.59-4.02-.67,6.18-1.3,12.78-.51,19.12-.64,3.12-.06,6.17-.75,9.69-.7.37,2.02-1.02,1.3-2.31,1.34-3.24.11-6.51-.08-9.74,0l1.01,1.36,37.83-1.37c1.09-.83-.01-1.21-.99-1.34-5.77-.74-13.28.81-19.52.72-1.22-.02-2.15-.72-2.27-.72,2.94-1.79,6.97-.02,9.71-.14,1.74-.08,4.87-1.2,6.03-1.2h19.43c5.09,0,11.1-.47,16.41-.67l-2.01,1.33c2.76-.14,5.65.22,8.4,0,2.06-.16,1.72.33,1.64-2.01.89,0,1.79-.03,2.68,0ZM395.12,77.08c-1.44.03-2.91-.08-4.36,0-.82.04-2.49-.51-2.33.66,1.44-.03,2.91.08,4.36,0,.82-.04,2.49.51,2.33-.66Z"/>
  <path class="cls-3" d="M231.67,15.45c.28,1.29-.65,1.6-1.4,2.28-6.91,6.27-14.4,11.98-21.38,18.14-8.42,7.43-18.96,19.01-27.79,25.13-1.94,1.35-3.28,1.59-5.69,1.34l11.38-11.06c13.49-10.14,25.18-22.9,38.54-33.13,1.83-1.4,3.92-2.76,6.34-2.69Z"/>
  <path class="cls-3" d="M207.56,15.45c-.28,1.66-2.72,3.27-4.01,4.36-14.59,12.26-29.72,26.29-44.57,37.82-2.62,2.04-4,3.37-7.68,2.69,2.55-3.06,5.69-5.79,8.7-8.38,12.32-10.57,26.41-22.68,39.22-32.46,2.48-1.89,5.05-4.56,8.35-4.03Z"/>
  <path class="cls-3" d="M184.79,16.12l-54.89,44.58-3.38.3c-.17-1.48,1.95-2.38,3.04-3.32,13.98-12.07,33.56-29.24,48.6-39.15,2.17-1.43,3.74-2.91,6.64-2.4Z"/>
  <path class="cls-3" d="M162.68,18.13l-57.6,43.54c-1.28-3.66-.65-2.02,1.24-3.07,7.4-4.11,15.58-12.36,22.55-17.68,9.63-7.36,19.78-14.06,29.18-21.73l4.63-1.06Z"/>
  <path class="cls-3" d="M143.25,20.14c1.17,1.02-.91,1.47-1.26,1.72-14.83,10.99-29.35,22.66-44.34,33.39-1.55,1.11-10.22,7.36-11.33,6.42-.44-1.74.61-1.18,1.25-1.74,12.36-10.89,28.24-21,41.83-30.53,1.72-1.21,12.47-10.45,13.85-9.25Z"/>
  <path class="cls-6" d="M379.72,76.4c.76.08,2.53,1.34,4.02.67l-3.35,2.68c-1.11.05-2.24-.05-3.35,0,.27-2.32-.73-.94-1.87-.87-5.16.32-10.19.22-15.21.34-3.93.09-8.29,1.04-12.39.53l7.04-1.33c2.02-.1,4.04.05,6.05,0,1.29-.04,2.69.68,2.31-1.34,5.53-.17,11.14-1.24,16.75-.67Z"/>
  <path class="cls-4" d="M125.17,164.83c.69-1.15,2.5-.71,3.6-.6,5.79.6,12.5,1.67,18.18,1.93,5.17.24,9.2.07,13.73-2.67-2.58,2.13-3.98,3.83-7.68,4.06-7.66.48-19.78-1.92-27.83-2.72Z"/>
  <path class="cls-6" d="M412.54,75.06c.12,0,1.05.7,2.27.72,6.23.09,13.74-1.46,19.52-.72.98.12,2.08.51.99,1.34l-37.83,1.37-1.01-1.36c3.23-.09,6.5.1,9.74,0,1.29-.04,2.69.68,2.31-1.34,1.34.02,2.68-.01,4.02,0Z"/>
  <path class="cls-6" d="M472.16,72.38c.08,2.34.41,1.85-1.64,2.01-2.75.22-5.64-.15-8.4,0l2.01-1.33c2.29-.09,5.1-.68,8.04-.67Z"/>
  <path class="cls-6" d="M479.53,71.71c.19,1.58.22,2.66-1.34,3.35-1.05.11-2.12.57-3.35.67v-3.35c.44.02.9-.03,1.34,0,.07,0,.67,1.16,1.24.58.29-.3,0-1.17.1-1.25.15-.12,1.47.05,2.01,0Z"/>
  <path class="cls-4" d="M477.52,71.71c-.1.08.19.95-.1,1.25-.57.58-1.17-.58-1.24-.58l1.34-.67Z"/>
  <path class="cls-3" d="M85.64,79.75c-.22.01-.45-.01-.67,0l.33-.66.33.66Z"/>
  <path class="cls-3" d="M408.53,211.05v2c-4.5.34-8.86,1.62-13.28,2.47-33.17,6.36-69.01,12.85-102.39,17.52-3.14.44-6.47,1-9.62,1.15-1.1.05-1.76.72-2.66-.72l127.94-22.43Z"/>
  <path class="cls-4" d="M381.84,192.4c.52-.79,7.08-2.1,8.28-.12.67,1.12.65,9.68-.33,10.4-1.09.81-6.93,2.25-8.12.71-1.05-1.36-.58-9.87.17-11ZM383.74,201l5.07-.63c1.65-9.54-6.98-9.35-5.07.63Z"/>
  <path class="cls-1" d="M329.57,87.22c.76-1.22,24.18-1.92,27.7-2.11,6.05-.33,15.77-1.94,21.49-1.37,2.05.2,3.86.71,4.29,3.07,1,5.44.78,12.41,1.36,18.07.97,9.38,2.1,18.81,3.25,28.17-.31,2.59-2.06,3.64-4.42,4.16-4.84,1.06-12.08,1.55-17.26,2.16-8.75,1.03-20.26,2.59-28.84,2.72-5.23.08-4.44-5.71-4.92-9.82-.89-7.71-.88-15.98-1.41-24.04-.46-6.98-2.17-13.93-1.24-21.01Z"/>
  <path class="cls-4" d="M13.97,191.62c8.4.23,19.41,4.25,28.13,4.69.33.93,1.31.56,2.01.67,30.6,4.64,61.56,7.28,92.18,11.32,5.86.77,10.42-1.85,12.16,5.92.95,4.24,1.29,12.04,1.49,16.59.11,2.49.82,6.46-2.37,7.03-1.32.24-6.84-.48-8.67-.68-11.95-1.29-24.8-3.1-36.76-4.77-28.25-3.96-56.13-9.76-84.15-15.01-3.06-.65-4.12-3.58-5.08-6.29l-1.64-18.13c.78-1.34,1.2-1.38,2.68-1.34ZM17.74,196.41c-4.85.93-1.99,18.29,2.47,17.89,4.04-.36,3.47-7.33,3.07-10.22-.3-2.19-2.75-8.2-5.55-7.67ZM131.35,214.54c-.3.54-.9,6.49-.87,7.56.17,5.41,3.37,11.19,9.27,11.58,9.34.61,7.61-26.27-4.92-21.35-.47.18-3.39,2.03-3.49,2.21Z"/>
  <path class="cls-5" d="M262.49,167.51c-.02.95-1.74,4.29,1.11,5.25,3.8,1.28,11.58-.64,15.63-1.23v17.08l-99.15,14.41-2.01-36.18,68-7.36c9.14-.99,20.67-3.01,29.45-3.38,1.38-.06,3.57-.63,3.04,1.36-3.4.92-13.25.34-15.7,2.06s-.43,3.59-.38,4.64c.04,1.11.02,2.24,0,3.35Z"/>
  <path class="cls-5" d="M278.57,209.04c-22.59,2.22-42.91,3.11-55.88,24.17-1.34,2.17-4.52,10.02-6.22,10.53-4.59-.24-35.74,6.85-37.05,5.5-.54-5.49-.73-10.88-.66-16.41.02-1.26.67-2.58.69-4,.05-3.56-.79-21.88,1.07-23.2l98.04-13v16.41Z"/>
  <path class="cls-5" d="M271.2,85.11l6.62,68.25c-.71,1.12-22.98,2.39-26.38,2.76-8.26.9-16.55,1.81-24.78,2.68-16.17,1.72-32.33,4.32-48.57,5.35-.98-.98,5.58-22.74,6.52-25.97,3.86-13.16,9.01-26.55,12.57-39.68.89-3.28,1.96-6.6,1.68-10.05,24.06-1.18,48.28-2.31,72.35-3.35ZM199.52,103.2c-.28,1.33-.81,2.61-.67,4.02-.7.89-.93,1.17-1.37,2.29-3.78,9.64-8.44,25.55-11.16,35.75-3.55,13.29,5.87,8.97,14.22,8.82.98-.02,2.06.72,2.34.7-.37,2.02,1.02,1.31,2.31,1.34,2.18.05,10.9-.38,12.08-1.35.6-.49,1.1-2.22,1.68-2.67.08-.06,1.82-.64,2.01-.67,13.6-2.02,30.14-.96,43.46-4.44,4.02-1.05,4.95-3.25,4.82-7.29-.26-7.76-1.48-15.69-2.04-23.44-.35-4.8.06-20.89-1.97-23.99-2.31-3.53-16.37-.67-20.49-.46-13.15.67-26.31,1.14-39.47,2.06-3.92.61-5.05,6.11-5.74,9.34Z"/>
  <path class="cls-5" d="M216.27,246.56c-1.41,4.69-1.99,15.85-6.75,18.36l-28.75,4.41-1.31-17.39,36.81-5.38Z"/>
  <path class="cls-6" d="M262.49,167.51c.02-1.11.04-2.24,0-3.35,4.64.72,9.92-1.46,14.4-.67,2.38.42,2.38,2.92,0,3.34-3.94.7-10.19.15-14.4.67Z"/>
  <path class="cls-3" d="M68.9,241.86c-2.04-.41-12.91-2.65-13.76-2.52-1.02.15-1.1,1.65-.98,2.51,6.86.72,13.65,3.17,20.48,3.99,1.25.15.9.09.96-.97.1-1.95-.54-1.77-2.68-2.35.88-1.12,3.08-.77,4.35-.66,14.15,1.2,28.84,6.28,43.21,6.69-.49,3.11-.78,6.26-1.37,9.35-23.83-4.28-47.94-8.01-71.66-13.02-6.83-1.44-20.89-3.74-26.65-6.17-3.56-1.5-1.68-4.26-2.81-7.57l.66-.34c-.18-.2-.59-.2-.66-.33-.28-.5-.46-.65-.67-1.34,16.4,3.8,32.66,8.58,49.35,10.6l2.23,2.13ZM99.04,247.23l-20.09-3.35c.11.72-.26,2.21.07,2.6.73.89,17.48,3.53,20.02,3.42v-2.67Z"/>
  <path class="cls-5" d="M17.99,231.14v-.67c.07.13.48.13.66.33l-.66.34Z"/>
  <path class="cls-6" d="M73.58,239.18c-.71.68-18.41-2.28-19.41-3.03-.7-.52-1.04-1.97-.68-2.33.68-.67,16.93,2.1,18.95,2.82,1.39.49,1.23,1.3,1.14,2.53Z"/>
  <path class="cls-1" d="M68.9,241.86c1.26.25,3.02.4,4.02.67,2.13.58,2.78.39,2.68,2.35-.05,1.06.3,1.12-.96.97-6.83-.81-13.62-3.26-20.48-3.99-.12-.86-.04-2.36.98-2.51.85-.13,11.72,2.11,13.76,2.52Z"/>
  <path class="cls-1" d="M97.03,236.5c-1.64,0-3.29.1-4.94-.08-2.25-.24-14.06-2.04-15.31-2.61-.83-.38-1.24-1.79-1.18-2.66,5.78,1.41,13.4,1.26,18.92,2.85,1.16.33,2.76.91,2.51,2.51Z"/>
  <path class="cls-1" d="M98.37,243.2c-.77.65-17.87-2.42-19.81-3.3-1.01-.46-1.88-.68-1.62-2.05.76-.63,18.07,2.26,19.58,2.85,1.07.42,2.04,1.22,1.85,2.5Z"/>
  <path class="cls-1" d="M72.15,230.57c.27.45.33,2.62-.25,2.59-5.73-1.59-12.21-1.95-17.87-3.58-3.4-.98-2.13-2.46.81-2.19,2,.18,16.86,2.42,17.31,3.17Z"/>
  <path class="cls-3" d="M42.1,196.31c1.28-1.15,2.36-1.09,2.01.67-.7-.11-1.68.26-2.01-.67Z"/>
  <path class="cls-1" d="M246.86,248.15c19.05-.33,22.78,30.58,7.92,41.27-4.25,3.06-4.99,2.07-9.35,1.99-2.97-.06-2.87,1.12-6.55-.83-16.53-8.73-11.21-42.1,7.97-42.43Z"/>
  <path class="cls-4" d="M222.3,267.99c.87.83-3.07,3.66-4.01,3.34-.92-.88,3.46-3.87,4.01-3.34Z"/>
  <path class="cls-4" d="M287.27,288.09c.2.2.43,2.54-.99,2-2.43-.93-.17-3.16.99-2Z"/>
  <path class="cls-4" d="M280.58,286.75c.73.73-.6,2.06-1.33,1.33s.6-2.06,1.33-1.33Z"/>
  <path class="cls-1" d="M430.44,215.88c3.59-.81,7.86,1.68,9.93,4.52,3.62,4.96,3.62,15.96,2.24,21.72-1.1,4.59-5.83,11.71-11.01,11.83-14.09.34-15-34.96-1.17-38.08Z"/>
  <path class="cls-1" d="M62.71,86.92c.69-.71-.17-2.37,3.33-2.99,7.5-1.33,17.59-1.12,25.33-1.47,27.35-1.24,55.38-.75,82.44,3.25,2.73.4,10.56-.24,11.99,2.74,2.31,4.85-4.94,18.85-6.84,23.98-4.92,13.26-10.65,33.69-17.32,45.65-.73,1.32-3.46,4.88-4.78,5.26-2.31.68-13.52.34-16.64.17-8.15-.46-16.72-2.62-24.77-3.37-27.47-2.53-54.97-3.82-82.37-6.72-6.6-.7-5.64-2.29-3.6-7.6,4.67-12.12,14.82-27.93,21.22-39.74,2.6-4.8,6.09-14.31,9.46-18.02.82-.9,2.11-.69,2.56-1.15Z"/>
  <path class="cls-6" d="M395.12,77.08c.15,1.17-1.52.62-2.33.66-1.45.07-2.92-.04-4.36,0-.15-1.17,1.52-.62,2.33-.66,1.45-.07,2.92.04,4.36,0Z"/>
  <path class="cls-6" d="M383.74,201c-1.92-9.98,6.72-10.17,5.07-.63l-5.07.63Z"/>
  <path class="cls-2" d="M131.35,214.54c.1-.18,3.02-2.02,3.49-2.21,12.53-4.92,14.26,21.95,4.92,21.35-5.9-.38-9.1-6.16-9.27-11.58-.03-1.07.57-7.03.87-7.56Z"/>
  <path class="cls-2" d="M17.74,196.41c2.8-.54,5.24,5.48,5.55,7.67.4,2.89.97,9.87-3.07,10.22-4.46.4-7.33-16.96-2.47-17.89Z"/>
  <path class="cls-1" d="M199.52,103.2c.69-3.23,1.82-8.72,5.74-9.34,13.17-.92,26.32-1.39,39.47-2.06,4.12-.21,18.18-3.07,20.49.46,2.03,3.1,1.62,19.19,1.97,23.99.56,7.75,1.79,15.68,2.04,23.44.13,4.04-.8,6.24-4.82,7.29-13.31,3.48-29.86,2.42-43.46,4.44v-14.06c4.82.68,14.21,1.54,14.5-5.13.18-4.15-.08-11.77-.41-16-.66-8.45-3.32-9.32-11.75-8.35-4.93.57-3.89,2.56-5.04,3.35-.96.66-7.74-6.01-9.56-6.84-2.81-1.28-6.15-1.29-9.19-1.2Z"/>
  <path class="cls-1" d="M217.61,151.43c-.56,1.05-1.94,2.26-3.16,2.54-2.4.55-8.7.69-11.58.81-.27.01-1.35-.72-2.34-.7-8.35.15-17.77,4.48-14.22-8.82,2.72-10.2,7.38-26.11,11.16-35.75.44-1.12.67-1.4,1.37-2.29,1.54-1.96,3.16-1.64,5.64-1.28,3.24.48,11.3,5.87,12.5,8.93.48,8.51,4.41,29.52.62,36.56Z"/>
  <path class="cls-6" d="M199.52,103.2c3.03-.09,6.37-.08,9.19,1.2,1.82.83,8.6,7.5,9.56,6.84,1.14-.78.11-2.78,5.04-3.35,8.42-.97,11.09-.1,11.75,8.35.33,4.23.59,11.85.41,16-.29,6.67-9.68,5.81-14.49,5.13v14.06c-.19.03-1.93.61-2.01.67l-1.34-.67c3.79-7.04-.14-28.05-.62-36.56-1.2-3.07-9.26-8.45-12.5-8.93-2.48-.37-4.1-.69-5.64,1.28-.14-1.41.39-2.69.67-4.02Z"/>
  <path class="cls-4" d="M218.95,152.1c-.58.45-1.08,2.18-1.68,2.67-1.19.97-9.91,1.4-12.08,1.35-1.29-.03-2.69.68-2.31-1.34,2.88-.12,9.18-.26,11.58-.81,1.22-.28,2.59-1.5,3.16-2.54l1.34.67Z"/>
  <path class="cls-1" d="M99.04,247.23v2.67c-2.54.11-19.29-2.53-20.02-3.42-.33-.4.04-1.88-.07-2.6l20.09,3.35Z"/>
</svg>